<svg width="22" height="24" viewBox="0 0 22 24" fill="none" xmlns="http://www.w3.org/2000/svg">
<path d="M2.78008 12.0291C3.31725 9.34329 3.58583 8.00036 4.4733 7.13543C4.63733 6.97557 4.81478 6.8301 5.0037 6.70061C6.02588 6 7.3954 6 10.1344 6H11.8373C14.5764 6 15.9459 6 16.9681 6.70061C17.157 6.8301 17.3344 6.97557 17.4985 7.13543C18.3859 8.00036 18.6545 9.34329 19.1917 12.0291C19.9629 15.8851 20.3485 17.8131 19.4608 19.1793C19.3001 19.4267 19.1125 19.6555 18.9015 19.8616C17.7359 21 15.7697 21 11.8373 21H10.1344C6.20206 21 4.23588 21 3.07031 19.8616C2.85926 19.6555 2.67166 19.4267 2.51094 19.1793C1.62328 17.8131 2.00888 15.8851 2.78008 12.0291Z" stroke="#ffffff" stroke-width="2"/>
<path d="M7.98584 6V5C7.98584 3.34315 9.32894 2 10.9858 2C12.6427 2 13.9858 3.34315 13.9858 5V6" stroke="#ffffff" stroke-width="2" stroke-linecap="round"/>
<path d="M8.15674 15C8.56857 16.1652 9.67984 17 10.986 17C12.2922 17 13.4035 16.1652 13.8153 15" stroke="#ffffff" stroke-width="2" stroke-linecap="round"/>
</svg>
