<svg width="33" height="25" viewBox="0 0 33 25" fill="none" xmlns="http://www.w3.org/2000/svg">
<path d="M28.8882 17.6817L26.8324 19.7241L25.7531 18.6522C25.6366 18.5404 25.4806 18.4785 25.3186 18.4799C25.1567 18.4813 25.0018 18.5458 24.8872 18.6595C24.7727 18.7732 24.7077 18.9271 24.7063 19.088C24.7048 19.2489 24.767 19.4039 24.8795 19.5197L26.3972 21.0273C26.4545 21.0844 26.5225 21.1296 26.5974 21.1604C26.6724 21.1913 26.7527 21.2072 26.8338 21.2072C26.9149 21.2072 26.9952 21.1913 27.0701 21.1604C27.145 21.1296 27.2131 21.0844 27.2704 21.0273L29.7632 18.5512C29.8793 18.436 29.9445 18.2796 29.9445 18.1166C29.9445 17.9535 29.8794 17.7972 29.7634 17.6819C29.6473 17.5665 29.4899 17.5017 29.3258 17.5017C29.1617 17.5017 29.0043 17.5664 28.8882 17.6817Z" fill="black"/>
<path d="M30.8365 14.9293V2.86461C30.8356 2.10512 30.5316 1.37698 29.991 0.839946C29.4504 0.302909 28.7174 0.000835262 27.9529 0H2.88353C2.11903 0.000835262 1.38608 0.302909 0.845495 0.839946C0.30491 1.37698 0.00084078 2.10512 0 2.86461V17.689C0.00084078 18.4485 0.30491 19.1767 0.845495 19.7137C1.38608 20.2507 2.11903 20.5528 2.88353 20.5536H21.7751C21.8212 20.7725 21.8813 20.9882 21.9551 21.1995C22.2429 22.028 22.7211 22.7786 23.3518 23.3915C23.9825 24.0044 24.7483 24.4629 25.5884 24.7306C26.4285 24.9982 27.3199 25.0677 28.1918 24.9335C29.0637 24.7992 29.8921 24.465 30.6112 23.9572C31.3304 23.4495 31.9206 22.7822 32.3349 22.0084C32.7493 21.2346 32.9764 20.3755 32.9983 19.4992C33.0201 18.623 32.8361 17.7538 32.4609 16.9605C32.0856 16.1672 31.5295 15.4718 30.8365 14.9293ZM2.88353 1.22719H27.9529C28.3899 1.22765 28.8089 1.40031 29.1179 1.70729C29.4269 2.01426 29.6007 2.43048 29.6012 2.86461V3.58304H1.23529V2.86461C1.23576 2.43048 1.40956 2.01426 1.71857 1.70729C2.02757 1.40031 2.44653 1.22765 2.88353 1.22719ZM1.23529 4.81022H29.6008V7.56088H1.23529V4.81022ZM1.23529 17.689V8.78806H29.6012V14.1877L29.5945 14.1845C28.7325 13.8102 27.7904 13.6544 26.8529 13.7314C25.9153 13.8084 25.0117 14.1156 24.2233 14.6255C23.4349 15.1354 22.7865 15.8319 22.3362 16.6525C21.8859 17.473 21.648 18.3919 21.6438 19.3264H2.88353C2.44653 19.326 2.02757 19.1533 1.71857 18.8463C1.40956 18.5394 1.23576 18.1232 1.23529 17.689ZM27.3212 23.7689C26.3967 23.7682 25.4954 23.4814 24.7427 22.9483C23.99 22.4151 23.4232 21.6622 23.1212 20.7942C23.0154 20.4927 22.9444 20.1803 22.9094 19.8629C22.8885 19.6942 22.8783 19.5244 22.8791 19.3545C22.8791 18.6215 23.0628 17.9001 23.4137 17.2554C23.7646 16.6106 24.2716 16.0628 24.8889 15.6614C25.5062 15.26 26.2144 15.0177 26.9496 14.9563C27.6849 14.8949 28.4239 15.0163 29.1 15.3097C29.3699 15.4269 29.6267 15.5718 29.8662 15.742C30.6411 16.2794 31.2231 17.0485 31.5276 17.9372C31.8321 18.8259 31.8432 19.788 31.5593 20.6834C31.2754 21.5789 30.7113 22.3609 29.949 22.9159C29.1868 23.4708 28.2662 23.7696 27.3212 23.7689Z" fill="black"/>
<path d="M8.13526 11.8777C7.64447 11.8785 7.16513 12.0251 6.75879 12.2985C6.38808 12.0493 5.95608 11.9052 5.50914 11.8814C5.0622 11.8577 4.61719 11.9553 4.22185 12.1637C3.82651 12.3722 3.49577 12.6837 3.26512 13.0647C3.03446 13.4458 2.9126 13.882 2.9126 14.3267C2.9126 14.7713 3.03446 15.2076 3.26512 15.5886C3.49577 15.9697 3.82651 16.2812 4.22185 16.4896C4.61719 16.6981 5.0622 16.7957 5.50914 16.772C5.95608 16.7482 6.38808 16.604 6.75879 16.3549C7.07817 16.5689 7.44363 16.7056 7.82582 16.7539C8.20801 16.8023 8.59628 16.7609 8.95945 16.6331C9.32262 16.5053 9.65056 16.2947 9.91693 16.0182C10.1833 15.7416 10.3807 15.4069 10.4932 15.0409C10.6058 14.6748 10.6304 14.2876 10.565 13.9104C10.4996 13.5332 10.3461 13.1765 10.1168 12.869C9.88748 12.5614 9.58877 12.3115 9.24463 12.1395C8.9005 11.9674 8.52053 11.8779 8.13526 11.8781V11.8777ZM8.13526 15.5481C7.96185 15.5478 7.79047 15.511 7.63233 15.4403C7.4742 15.3696 7.33287 15.2666 7.21761 15.1379C7.15973 15.0732 7.08874 15.0215 7.00929 14.9861C6.92985 14.9507 6.84375 14.9323 6.75667 14.9323C6.66959 14.9323 6.5835 14.9507 6.50405 14.9861C6.42461 15.0215 6.35361 15.0732 6.29573 15.1379C6.13014 15.3232 5.91174 15.4541 5.66952 15.5132C5.4273 15.5723 5.17271 15.5568 4.93954 15.4688C4.70637 15.3808 4.50564 15.2245 4.36401 15.0205C4.22237 14.8166 4.14652 14.5747 4.14652 14.3269C4.14652 14.0791 4.22237 13.8371 4.36401 13.6332C4.50564 13.4292 4.70637 13.2729 4.93954 13.1849C5.17271 13.0969 5.4273 13.0814 5.66952 13.1406C5.91174 13.1997 6.13014 13.3306 6.29573 13.5159C6.35525 13.5778 6.42678 13.627 6.506 13.6607C6.58523 13.6944 6.6705 13.7117 6.75667 13.7117C6.84284 13.7117 6.92811 13.6944 7.00734 13.6607C7.08657 13.627 7.1581 13.5778 7.21761 13.5159C7.35412 13.3641 7.52669 13.2486 7.7196 13.1799C7.91251 13.1113 8.11964 13.0917 8.32213 13.1229C8.52462 13.154 8.71604 13.2351 8.87897 13.3585C9.0419 13.482 9.17115 13.6439 9.25497 13.8297C9.33879 14.0155 9.37451 14.2191 9.35888 14.4221C9.34325 14.625 9.27677 14.8209 9.16548 14.9918C9.05419 15.1628 8.90164 15.3033 8.7217 15.4007C8.54177 15.4981 8.34017 15.5493 8.13526 15.5495" fill="black"/>
</svg>
