<svg width="29" height="29" viewBox="0 0 29 29" fill="none" xmlns="http://www.w3.org/2000/svg">
<path d="M28.6058 4.18419C28.5965 3.10628 28.1642 2.07516 27.402 1.31294C26.6398 0.550716 25.6086 0.11839 24.5307 0.109088L16.5842 6.22713e-05C15.4703 -0.00598781 14.3993 0.429034 13.6051 1.21009L1.05952 13.7557C0.381106 14.4344 0 15.3547 0 16.3143C0 17.2739 0.381106 18.1942 1.05952 18.8729L9.84299 27.6563C10.179 27.9924 10.5778 28.2589 11.0169 28.4408C11.4559 28.6226 11.9264 28.7162 12.4016 28.7162C12.8767 28.7162 13.3473 28.6226 13.7863 28.4408C14.2253 28.2589 14.6242 27.9924 14.9601 27.6563L27.5058 15.1107C27.8952 14.7194 28.2028 14.2545 28.4105 13.743C28.6182 13.2315 28.7219 12.6837 28.7155 12.1317L28.6058 4.18419ZM26.745 14.3497L14.1994 26.8953C13.9632 27.1315 13.6828 27.3189 13.3742 27.4467C13.0656 27.5746 12.7348 27.6404 12.4008 27.6404C12.0668 27.6404 11.736 27.5746 11.4274 27.4467C11.1188 27.3189 10.8384 27.1315 10.6022 26.8953L1.8187 18.1118C1.34182 17.6348 1.07393 16.9879 1.07393 16.3134C1.07393 15.6388 1.34182 14.9919 1.8187 14.5149L14.3643 1.96897C14.9388 1.39723 15.7159 1.07549 16.5264 1.07373H16.5688L24.5157 1.18276C25.3132 1.18942 26.0762 1.5092 26.6402 2.07318C27.2042 2.63715 27.524 3.40015 27.5306 4.1977L27.6397 12.1446C27.6444 12.5529 27.5676 12.9581 27.414 13.3364C27.2603 13.7148 27.0328 14.0587 26.7447 14.3481" fill="black"/>
<path d="M22.4298 3.43759C22.1482 3.71918 21.9565 4.07794 21.8788 4.46851C21.8011 4.85907 21.841 5.2639 21.9934 5.6318C22.1458 5.99969 22.4039 6.31414 22.735 6.53537C23.0661 6.7566 23.4554 6.87469 23.8536 6.87469C24.2518 6.87469 24.6411 6.7566 24.9722 6.53537C25.3033 6.31414 25.5614 5.99969 25.7138 5.6318C25.8662 5.2639 25.906 4.85907 25.8284 4.46851C25.7507 4.07794 25.5589 3.71918 25.2774 3.43759C24.8995 3.06056 24.3874 2.84882 23.8536 2.84882C23.3198 2.84882 22.8077 3.06056 22.4298 3.43759ZM24.5182 5.52597C24.3393 5.69655 24.1017 5.79172 23.8545 5.79172C23.6074 5.79172 23.3697 5.69655 23.1908 5.52597C23.0596 5.39471 22.9702 5.22747 22.934 5.04542C22.8978 4.86336 22.9164 4.67465 22.9874 4.50316C23.0585 4.33167 23.1788 4.18509 23.3331 4.08197C23.4874 3.97884 23.6689 3.9238 23.8545 3.9238C24.0401 3.9238 24.2216 3.97884 24.3759 4.08197C24.5303 4.18509 24.6506 4.33167 24.7216 4.50316C24.7926 4.67465 24.8112 4.86336 24.775 5.04542C24.7388 5.22747 24.6494 5.39471 24.5182 5.52597Z" fill="black"/>
<path d="M17.1262 11.5988C16.7552 11.9491 16.4971 12.402 16.385 12.8998C16.2729 13.3975 16.3118 13.9174 16.4968 14.3928C16.6818 14.8683 17.0045 15.2778 17.4236 15.5688C17.8426 15.8599 18.3389 16.0193 18.8491 16.0267C19.3593 16.034 19.86 15.889 20.2873 15.6102C20.7145 15.3314 21.0489 14.9314 21.2476 14.4614C21.4462 13.9915 21.5002 13.473 21.4025 12.9722C21.3048 12.4715 21.0599 12.0112 20.6992 11.6504C19.7004 10.6517 18.1866 10.5384 17.1262 11.5988ZM19.8549 14.3266C19.412 14.7692 18.7223 14.7176 18.1768 14.1731C17.6105 13.6068 17.5589 12.9375 18.0119 12.4839C18.4342 12.062 19.1341 12.1028 19.6903 12.659C20.2465 13.2152 20.2978 13.8841 19.8549 14.3269" fill="black"/>
<path d="M9.17805 12.2785C8.11759 13.339 8.21003 14.8525 9.22934 15.8718C9.45967 16.1128 9.73592 16.3053 10.0418 16.4378C10.3477 16.5704 10.677 16.6404 11.0104 16.6437C11.3437 16.647 11.6744 16.5836 11.9828 16.4571C12.2913 16.3306 12.5713 16.1436 12.8064 15.9072C13.0414 15.6708 13.2268 15.3897 13.3515 15.0805C13.4762 14.7714 13.5378 14.4404 13.5326 14.107C13.5274 13.7737 13.4555 13.4448 13.3211 13.1396C13.1868 12.8345 12.9927 12.5594 12.7504 12.3304C11.752 11.332 10.2487 11.2082 9.17805 12.2791V12.2785ZM11.9166 15.0177C11.4943 15.4397 10.7944 15.3985 10.2385 14.8426C9.68264 14.2868 9.63105 13.6172 10.0632 13.1842C10.506 12.7414 11.1958 12.7929 11.7415 13.3378C12.3079 13.9038 12.349 14.5834 11.9166 15.0158" fill="black"/>
<path d="M13.3272 8.27343L15.4789 20.2681L16.57 19.1766L14.4184 7.18225L13.3272 8.27343Z" fill="black"/>
</svg>
