<svg width="91" height="76" viewBox="0 0 91 76" fill="none" xmlns="http://www.w3.org/2000/svg">
<path d="M17.7093 36.7245C7.71569 36.7245 0.955475 29.269 0.955475 18.2223C0.955475 8.28161 8.71059 0 19.2144 0C30.7195 0 39.2208 9.94066 39.2208 25.1248C39.2208 59.6371 15.7131 73.4421 0.955475 75.1012V59.9171C10.9619 57.9849 22.2119 47.2181 22.7157 35.3385C22.2119 35.6116 20.2157 36.7245 17.7093 36.7245Z" fill="#DFE3EB"/>
<path d="M68.7299 36.7245C58.7298 36.7245 51.976 29.269 51.976 18.2223C51.976 8.28161 59.7311 0 70.235 0C81.7401 0 90.2414 9.94066 90.2414 25.1248C90.2414 59.6371 66.7337 73.4421 51.976 75.1012V59.9171C61.9824 57.9849 73.2324 47.2181 73.7363 35.3385C73.2324 35.6116 71.2362 36.7245 68.7299 36.7245Z" fill="#DFE3EB"/>
</svg>
