<svg width="33" height="32" viewBox="0 0 33 32" fill="none" xmlns="http://www.w3.org/2000/svg">
<path d="M15.371 4.48313C15.7378 3.73997 16.7976 3.73997 17.1644 4.48313L20.1553 10.5423C20.3008 10.8371 20.582 11.0416 20.9074 11.0891L27.5973 12.067C28.4172 12.1868 28.744 13.1946 28.1504 13.7728L23.3112 18.4862C23.0753 18.7159 22.9676 19.0471 23.0233 19.3716L24.1651 26.0291C24.3053 26.8461 23.4477 27.4691 22.7141 27.0833L16.7332 23.938C16.4418 23.7847 16.0937 23.7847 15.8023 23.938L9.82135 27.0833C9.08772 27.4691 8.23017 26.8461 8.37029 26.0291L9.51214 19.3716C9.5678 19.0471 9.46014 18.7159 9.22427 18.4862L4.38507 13.7728C3.79147 13.1946 4.11826 12.1868 4.93817 12.067L11.6281 11.0891C11.9534 11.0416 12.2346 10.8371 12.3802 10.5423L15.371 4.48313Z" fill="#FF8718"/>
</svg>
